<svg xmlns="http://www.w3.org/2000/svg" width="336" height="20" viewBox="0 0 336 20"><g><g><path fill="#a85" d="M328.424 2.61c-3.718 1.42-13.434 4.123-20.106 4.982-6.236.802-16.528-1.121-24.564 0-1.8.251-5.156 2.387-8.934 2.49-3.946.107-9.19-1.084-13.401-1.245-30.51-1.17-68.057 0-102.741 0-104.89 0-26.547-1.422-133.862 0-4.03.052-9.07-.241-13.683-.093l-1.947.093c-1.251.08-10.85-1.432-8.934 2.491 92.174-.81-6.048 3.28 91.426 1.245 2.075-.044 4.671.247 6.695 0 1.857-.225 2.197-1.209 4.467-1.245 6.668-.112 7.124 1.814 15.635 1.245.665-.044 4.09.255 4.462 0 1.927-1.312 2.994-.154 10.198-.012l12.004.078c8.565.042 17.23.053 26.94-.066-.568.006 1.093-2.039 2.233-1.245 3.025 2.107 19.255 1.191 29.04 1.245 14.606.08 29.758.023 44.207.005l7.16-.005c33.088 0 59.74-1.824 78.176 7.473 2.532-.239 1.234-1.25 0-1.245-6.346-3.228-1.875-12.979 2.23-18.682-4.589-.682-4.766 1.754-6.701 2.491z"/></g></g></svg>